<svg width="19" height="19" viewBox="0 0 19 19" fill="none" xmlns="http://www.w3.org/2000/svg">
<path d="M18.2892 14.33C17.7156 13.849 14.3517 11.7188 13.7925 11.8166C13.53 11.8632 13.3292 12.0869 12.7918 12.7281C12.5432 13.0437 12.2702 13.3392 11.9754 13.6121C11.4351 13.4816 10.9122 13.2877 10.4174 13.0346C8.47709 12.0899 6.90954 10.5219 5.96544 8.58125C5.71228 8.08648 5.51844 7.56355 5.38794 7.02331C5.66076 6.72846 5.95633 6.45549 6.27191 6.20694C6.91241 5.66947 7.13684 5.46997 7.18344 5.20616C7.28122 4.64572 5.14906 1.28309 4.67 0.709531C4.46919 0.471969 4.28675 0.3125 4.05312 0.3125C3.37587 0.3125 0.3125 4.10038 0.3125 4.59125C0.3125 4.63128 0.378125 8.57469 5.35841 13.6416C10.4253 18.6219 14.3687 18.6875 14.4087 18.6875C14.8996 18.6875 18.6875 15.6241 18.6875 14.9469C18.6875 14.7132 18.528 14.5308 18.2892 14.33Z" fill="#E9ECF0"/>
</svg>
