<svg width="18" height="15" viewBox="0 0 18 15" fill="none" xmlns="http://www.w3.org/2000/svg">
<path d="M17.6 5.04487V12.8431C17.6 13.2752 17.4461 13.6452 17.1384 13.9529C16.8307 14.2606 16.4607 14.4145 16.0286 14.4145H1.57143C1.13929 14.4145 0.769345 14.2606 0.461607 13.9529C0.153869 13.6452 0 13.2752 0 12.8431V5.04487C0.288095 5.3657 0.61875 5.65052 0.991964 5.89933C3.3622 7.51005 4.98929 8.63951 5.87321 9.28772C6.24643 9.56272 6.54762 9.7788 6.77679 9.93594C7.0125 10.0865 7.32351 10.2437 7.70982 10.4074C8.09613 10.5645 8.45625 10.6431 8.79018 10.6431H8.80982C9.14375 10.6431 9.50387 10.5645 9.89018 10.4074C10.2765 10.2437 10.5842 10.0865 10.8134 9.93594C11.0491 9.7788 11.3536 9.56272 11.7268 9.28772C12.8399 8.48237 14.4702 7.3529 16.6179 5.89933C16.9911 5.64397 17.3185 5.35915 17.6 5.04487ZM17.6 2.15737C17.6 2.67463 17.4396 3.16897 17.1188 3.6404C16.7979 4.11183 16.3985 4.51451 15.9205 4.84844C13.4586 6.55737 11.9265 7.62135 11.3241 8.0404C11.2586 8.08624 11.1179 8.18772 10.9018 8.34487C10.6923 8.49546 10.5155 8.61987 10.3714 8.71808C10.2339 8.80975 10.0637 8.91451 9.86071 9.03237C9.66429 9.15022 9.47768 9.23862 9.30089 9.29754C9.12411 9.35647 8.96042 9.38594 8.80982 9.38594H8.79018C8.63958 9.38594 8.47589 9.35647 8.29911 9.29754C8.12232 9.23862 7.93244 9.15022 7.72946 9.03237C7.53304 8.91451 7.3628 8.80975 7.21875 8.71808C7.08125 8.61987 6.90447 8.49546 6.68839 8.34487C6.47887 8.18772 6.34137 8.08624 6.27589 8.0404C5.68006 7.62135 4.82232 7.02552 3.70268 6.2529C2.58304 5.47374 1.9119 5.00558 1.68929 4.84844C1.28333 4.57344 0.900298 4.19695 0.540179 3.71897C0.18006 3.23445 0 2.78594 0 2.37344C0 1.86272 0.134226 1.43713 0.402679 1.09665C0.677679 0.756176 1.06726 0.585938 1.57143 0.585938H16.0286C16.4542 0.585938 16.8208 0.739806 17.1286 1.04754C17.4429 1.35528 17.6 1.72522 17.6 2.15737Z" fill="white"/>
</svg>
