<svg width="32" height="32" viewBox="0 0 32 32" fill="none" xmlns="http://www.w3.org/2000/svg">
<g filter="url(#filter0_i_15_143)">
<g clip-path="url(#clip0_15_143)">
<rect width="32" height="32" rx="16" fill="white" fill-opacity="0.01"/>
<path d="M17.3297 13.25H19.6243L19.3565 15.7857H17.3297V23.1429H14.285V15.7857H12.7672V13.25H14.285V11.7232C14.285 10.6399 14.541 9.82143 15.0529 9.26786C15.5648 8.70833 16.4071 8.42857 17.5797 8.42857H19.6065V10.9643H18.3386C18.1065 10.9643 17.919 10.9851 17.7761 11.0268C17.6392 11.0625 17.538 11.131 17.4725 11.2321C17.413 11.3333 17.3743 11.4375 17.3565 11.5446C17.3386 11.6458 17.3297 11.7917 17.3297 11.9821V13.25Z" fill="white"/>
</g>
</g>
<defs>
<filter id="filter0_i_15_143" x="0" y="0" width="32" height="32" filterUnits="userSpaceOnUse" color-interpolation-filters="sRGB">
<feFlood flood-opacity="0" result="BackgroundImageFix"/>
<feBlend mode="normal" in="SourceGraphic" in2="BackgroundImageFix" result="shape"/>
<feColorMatrix in="SourceAlpha" type="matrix" values="0 0 0 0 0 0 0 0 0 0 0 0 0 0 0 0 0 0 127 0" result="hardAlpha"/>
<feMorphology radius="2" operator="erode" in="SourceAlpha" result="effect1_innerShadow_15_143"/>
<feOffset/>
<feComposite in2="hardAlpha" operator="arithmetic" k2="-1" k3="1"/>
<feColorMatrix type="matrix" values="0 0 0 0 1 0 0 0 0 1 0 0 0 0 1 0 0 0 1 0"/>
<feBlend mode="normal" in2="shape" result="effect1_innerShadow_15_143"/>
</filter>
<clipPath id="clip0_15_143">
<rect width="32" height="32" rx="16" fill="white"/>
</clipPath>
</defs>
</svg>
