<svg width="121" height="138" viewBox="0 0 121 138" fill="none" xmlns="http://www.w3.org/2000/svg">
<path d="M55.5153 2.86621C58.6015 1.09163 62.3985 1.09163 65.4847 2.86621L115.485 31.6162C118.587 33.4002 120.5 36.7063 120.5 40.2853V97.7147C120.5 101.294 118.587 104.6 115.485 106.384L65.4847 135.134C62.3985 136.908 58.6015 136.908 55.5153 135.134L5.51528 106.384C2.41266 104.6 0.5 101.294 0.5 97.7147V40.2853C0.5 36.7063 2.41267 33.4002 5.51529 31.6162L55.5153 2.86621Z" fill="#0C2851"/>
<mask id="mask0_15_38" style="mask-type:luminance" maskUnits="userSpaceOnUse" x="25" y="34" width="71" height="70">
<path d="M95.5 34H25.5V104H95.5V34Z" fill="white"/>
</mask>
<g mask="url(#mask0_15_38)">
<path d="M52.6268 46.2807C53.3161 46.5385 53.6692 47.3063 53.4114 47.9957L53.3441 48.1806C53.0863 48.87 52.3185 49.2231 51.6235 48.9652L44.3602 46.2471C43.6652 45.9893 43.3177 45.2215 43.5755 44.5321L43.6428 44.3471C43.9006 43.6578 44.6684 43.3103 45.3577 43.5681L52.6268 46.2807Z" fill="white"/>
<path d="M31.1 53.0845C31.8398 53.0901 32.4338 53.6898 32.4282 54.424L32.3946 62.1862C32.389 62.9204 31.7893 63.5145 31.0551 63.5145H30.859C30.1248 63.5089 29.5251 62.9092 29.5307 62.1694L29.5643 54.4128C29.5699 53.6786 30.1696 53.0789 30.9094 53.0845H31.1Z" fill="white"/>
<path d="M44.6347 90.1021C45.8229 90.2033 46.7084 91.2457 46.6131 92.4336L46.5963 92.6242C46.4954 93.8125 45.453 94.6981 44.2648 94.5969L32.1928 93.5996C31.0047 93.4984 30.1192 92.4559 30.22 91.2681L30.2368 91.0775C30.3321 89.8891 31.3802 89.0036 32.5683 89.1048L44.6347 90.1021Z" fill="white"/>
<path d="M62.7036 72.3303C63.0231 73.4792 62.3505 74.673 61.2016 74.9868L61.0167 75.0373C59.8678 75.3567 58.6796 74.6842 58.3602 73.5353L55.1264 61.8611C54.8069 60.7122 55.4794 59.524 56.634 59.2046L56.8133 59.1541C57.9622 58.8347 59.156 59.5072 59.4754 60.6618L62.7036 72.3303Z" fill="white"/>
<path d="M94.8173 44.5713C95.4224 45.2607 95.3499 46.3087 94.6605 46.914L87.593 53.1182C86.9039 53.7234 85.8556 53.6506 85.2505 52.9612L85.1329 52.8323C84.5332 52.143 84.6003 51.0949 85.2897 50.4897L92.3568 44.2911C93.0462 43.6858 94.1 43.753 94.6997 44.4424L94.8173 44.5713Z" fill="white"/>
<path d="M68.6837 46.2415C69.0089 47.0934 68.5829 48.0573 67.7253 48.3824L67.5684 48.4441C66.7109 48.7747 65.7525 48.3488 65.4219 47.4913L62.0479 38.7147C61.7173 37.8572 62.1432 36.8988 63.0007 36.5681L63.1633 36.5065C64.0151 36.1758 64.9791 36.6074 65.3042 37.4593L68.6837 46.2415Z" fill="white"/>
<path d="M50.794 51.0052C51.5282 51.2967 51.8925 52.1261 51.6067 52.8603C51.3153 53.6001 50.4858 53.9588 49.7516 53.673L40.6163 50.1029C39.9269 49.8339 39.3385 49.3688 38.9181 48.7579L38.0998 47.5753L35.9758 49.0437L36.794 50.2262C37.2143 50.8315 37.4385 51.5545 37.4497 52.2887L37.5506 62.0965C37.5562 62.8868 36.9229 63.5369 36.1327 63.5425C35.3424 63.5537 34.6979 62.9204 34.6867 62.1301L34.5915 52.6866C34.5858 52.2775 34.4625 51.8852 34.2272 51.5545L25.9493 39.5609C25.501 38.9108 25.6635 38.0197 26.3136 37.5713C26.9637 37.1229 27.8549 37.2855 28.3088 37.9356L34.3505 46.6898L36.4746 45.2214L30.4329 36.4728C29.979 35.8171 30.1471 34.926 30.7972 34.4776C31.4474 34.0293 32.3385 34.1918 32.7868 34.8419L41.0646 46.8299C41.2944 47.1662 41.6195 47.424 41.995 47.5697L50.794 51.0052Z" fill="#F1F1F1"/>
<path d="M91.0567 39.83C91.701 40.5473 91.6453 41.6514 90.9335 42.296L82.3809 50.0245C82.0165 50.3552 81.7534 50.7867 81.6353 51.2687L77.3763 68.5305C77.1465 69.4665 76.1994 70.0381 75.2632 69.8084C74.3275 69.573 73.7557 68.6314 73.9855 67.6898L77.0959 55.091L74.0357 54.3344L70.9308 66.9389C70.6955 67.8748 69.7484 68.4465 68.8127 68.2167C67.8765 67.9869 67.3049 67.0397 67.5347 66.1038L71.794 48.842C71.9176 48.36 71.8893 47.8556 71.7156 47.3904L67.742 36.5738C67.4114 35.6714 67.8765 34.6682 68.779 34.332C69.6868 34.0013 70.69 34.4665 71.0206 35.3688L75.1511 46.6058C75.4593 47.4521 75.5099 48.3712 75.297 49.2455L74.8765 50.9437L77.9308 51.7003L78.3512 49.9965C78.5701 49.1222 79.0407 48.3376 79.7078 47.7323L88.5906 39.7067C89.3024 39.0566 90.4064 39.1126 91.0567 39.83Z" fill="#F1F1F1"/>
<path d="M75.4092 93.123C76.3673 93.9187 76.5018 95.3368 75.7061 96.2949C74.9103 97.2589 73.4867 97.3879 72.5282 96.5977L59.6212 85.9046L57.0263 89.0373L69.9336 99.7308C70.8917 100.521 71.0262 101.944 70.2359 102.903C69.4402 103.861 68.0166 103.996 67.0583 103.206L49.3762 88.5608C48.883 88.1517 48.2833 87.8996 47.65 87.838L32.8373 86.3865C31.5988 86.263 30.6908 85.159 30.8141 83.9205C30.9318 82.6816 32.0359 81.7737 33.2745 81.8973L48.6588 83.4048C49.819 83.517 50.9118 83.9766 51.8085 84.7162L53.5515 86.1622L56.1464 83.0295L54.4034 81.5835C53.5067 80.8435 52.8566 79.8517 52.5259 78.7363L48.1768 63.9012C47.8294 62.7074 48.5131 61.452 49.7068 61.1045C50.9062 60.7514 52.156 61.4352 52.5091 62.6346L56.6957 76.9146C56.875 77.5256 57.2337 78.0692 57.7269 78.4787L75.4092 93.123Z" fill="#F1F1F1"/>
</g>
</svg>
