<svg width="120" height="138" viewBox="0 0 120 138" fill="none" xmlns="http://www.w3.org/2000/svg">
<path d="M55.0153 2.86621C58.1015 1.09163 61.8985 1.09163 64.9847 2.86621L114.985 31.6162C118.087 33.4002 120 36.7063 120 40.2853V97.7147C120 101.294 118.087 104.6 114.985 106.384L64.9847 135.134C61.8985 136.908 58.1015 136.908 55.0153 135.134L5.01528 106.384C1.91266 104.6 0 101.294 0 97.7147V40.2853C0 36.7063 1.91267 33.4002 5.01529 31.6162L55.0153 2.86621Z" fill="#0C2851"/>
<path d="M37.057 87.7989C36.4461 85.5177 34.3719 83.9247 32.0124 83.9247C31.5555 83.9247 31.099 83.9851 30.6561 84.1043C27.8731 84.85 26.2156 87.7211 26.9615 90.5044C27.5721 92.7856 29.6461 94.3786 32.0059 94.3786H32.0067C32.4625 94.3786 32.9186 94.3182 33.3625 94.1988C36.1449 93.4529 37.8023 90.5819 37.057 87.7989Z" fill="#E9ECF0"/>
<path d="M80.4224 74.0901C80.8189 74.064 81.2151 73.9981 81.5997 73.8945C83.1622 73.4758 84.4684 72.4734 85.2782 71.0718C86.0874 69.6695 86.3022 68.0366 85.8832 66.4739C85.1742 63.8291 82.7694 61.9822 80.0348 61.9822C79.7977 61.9822 79.5496 61.9979 79.2973 62.0291C79.009 62.0645 78.7276 62.1188 78.4613 62.1905C76.898 62.6092 75.5917 63.6116 74.7827 65.0132C73.9733 66.4153 73.7584 68.0481 74.1776 69.6112C74.8858 72.2562 77.2906 74.1034 80.0253 74.1034C80.158 74.1034 80.2915 74.099 80.4224 74.0901Z" fill="#E9ECF0"/>
<path d="M93.0873 97.4279C92.6427 95.7673 91.1328 94.6077 89.4155 94.6077C89.0843 94.6077 88.7524 94.6516 88.4288 94.7384C87.4489 95.0007 86.6291 95.6302 86.1204 96.5112C85.6118 97.3922 85.4763 98.4171 85.7389 99.3972C86.1836 101.058 87.6936 102.217 89.4109 102.217C89.7418 102.217 90.0739 102.174 90.3978 102.087C91.3776 101.824 92.1973 101.195 92.7059 100.314C93.2143 99.4329 93.3499 98.408 93.0873 97.4279Z" fill="#E9ECF0"/>
<path d="M78.9719 89.4894C78.3705 87.2446 76.3294 85.6769 74.0084 85.6769C73.8959 85.6769 73.7823 85.6806 73.6712 85.6881C73.3362 85.7102 73.0003 85.766 72.6727 85.8539C71.3463 86.2091 70.2376 87.0598 69.551 88.2497C68.864 89.4391 68.6816 90.825 69.0373 92.1519C69.6389 94.3965 71.6804 95.9641 74.0017 95.9641H74.0022C74.45 95.9641 74.899 95.9045 75.3363 95.7872C78.075 95.0532 79.7059 92.228 78.9719 89.4894Z" fill="#E9ECF0"/>
<path d="M50.3123 96.9996L50.2904 96.9662C50.2721 96.9364 50.2532 96.9073 50.2341 96.8786C50.1895 96.8115 50.1429 96.7462 50.0938 96.6823C50.077 96.6607 50.06 96.6393 50.0428 96.6179C49.9877 96.5498 49.9312 96.4848 49.8748 96.4248C49.8577 96.4068 49.8404 96.3891 49.8236 96.3722C49.7614 96.3086 49.7011 96.2515 49.6393 96.1975C49.6157 96.1768 49.5913 96.1563 49.5669 96.1358C49.5096 96.0884 49.4511 96.0426 49.3908 95.9989C49.3511 95.9702 49.3108 95.9425 49.2696 95.9153C49.2233 95.8846 49.1767 95.8552 49.1295 95.8274C49.0695 95.7915 49.008 95.7572 48.9444 95.7245C48.9142 95.7094 48.8842 95.6945 48.854 95.6803C48.7679 95.6394 48.6885 95.6051 48.6104 95.575L48.5639 95.558C48.4687 95.5229 48.3732 95.4924 48.2825 95.4678C48.2795 95.4667 48.2702 95.4638 48.2672 95.463C47.974 95.3844 47.6739 95.3446 47.3742 95.3446C45.8237 95.3446 44.4603 96.392 44.0586 97.8917C43.9896 98.1488 43.9509 98.4161 43.9435 98.6851L43.9416 98.736C43.9413 98.7549 43.9416 98.7737 43.9419 98.7925L43.9421 98.8103C43.9423 98.8443 43.9424 98.8785 43.9438 98.9132C43.9438 98.9141 43.9446 98.9275 43.9446 98.9281L44.081 98.9198L43.9453 98.9421C43.9703 99.4853 44.1285 100.024 44.4041 100.501L44.412 100.513C44.4644 100.603 44.5202 100.689 44.5773 100.77L44.6114 100.816C44.6674 100.892 44.722 100.961 44.7778 101.026C44.7918 101.042 44.8061 101.058 44.8204 101.073L44.8349 101.089C44.8892 101.149 44.9454 101.208 45.0036 101.264C45.0203 101.28 45.0372 101.295 45.0543 101.311L45.0744 101.329C45.135 101.384 45.1972 101.438 45.2621 101.488C45.277 101.5 45.2925 101.511 45.3077 101.523L45.3276 101.537C45.4053 101.595 45.4765 101.644 45.5449 101.688L45.593 101.717C45.6813 101.77 45.7639 101.816 45.8461 101.857L45.872 101.869C45.9698 101.917 46.0674 101.959 46.1665 101.996C46.2735 102.036 46.3816 102.071 46.4878 102.099C46.781 102.178 47.0811 102.218 47.3795 102.218H47.3801C48.9309 102.218 50.2942 101.17 50.6959 99.67C50.9338 98.7836 50.8121 97.8578 50.3529 97.0629C50.34 97.0412 50.3261 97.0202 50.3123 96.9996Z" fill="#E9ECF0"/>
<path d="M33.8426 61.2069C35.4731 61.2069 37.0058 60.5721 38.1585 59.4197C39.3104 58.2676 39.9446 56.7351 39.9446 55.1045C39.9446 53.474 39.3101 51.9415 38.1581 50.7892C37.0056 49.6368 35.473 49.0023 33.8426 49.0023C32.2123 49.0023 30.68 49.6371 29.5277 50.7894C28.377 51.9397 27.7433 53.4723 27.7433 55.1046C27.7433 56.7369 28.3768 58.2694 29.5272 59.4199C30.68 60.5723 32.2125 61.2069 33.8426 61.2069Z" fill="#E9ECF0"/>
<path d="M51.1641 43.3922C51.2481 43.3922 51.3357 43.3891 51.4243 43.3829C51.6703 43.366 51.9154 43.3252 52.1525 43.2617C52.3093 43.2197 52.4702 43.1647 52.6306 43.0981L52.6508 43.0898C52.6644 43.0845 52.6778 43.079 52.6902 43.0735C52.7073 43.066 52.7241 43.0582 52.7408 43.0503L52.7788 43.0327C52.8082 43.0191 52.8377 43.0057 52.867 42.9911L52.9003 42.9736C53.5526 42.6414 54.0923 42.1281 54.4611 41.4895C54.7681 40.9574 54.9435 40.3547 54.9689 39.7372C54.9708 39.6908 54.9709 39.6442 54.9709 39.5998L54.9716 39.5422C54.9712 39.5182 54.9703 39.4941 54.9692 39.47L54.9677 39.4324C54.9667 39.4041 54.9658 39.3757 54.9641 39.3501C54.9637 39.3415 54.9629 39.3326 54.9614 39.319C54.9441 39.0752 54.9038 38.8342 54.8419 38.6028C54.3965 36.9422 52.8865 35.7826 51.1685 35.7826C50.8377 35.7826 50.5056 35.8265 50.1817 35.9133C49.2011 36.1755 48.381 36.8048 47.8724 37.6853C47.3643 38.5655 47.2295 39.5905 47.4927 40.5714C47.9375 42.2323 49.4471 43.3922 51.1641 43.3922Z" fill="#E9ECF0"/>
<path d="M62.7772 51.8656C63.2713 53.7121 64.9503 55.0016 66.8599 55.0016H66.8607C67.2297 55.0016 67.5992 54.9527 67.9591 54.856C69.0501 54.564 69.9621 53.864 70.5272 52.885C71.0921 51.9069 71.2421 50.7668 70.9495 49.6749C70.4553 47.8281 68.7761 46.5383 66.8655 46.5383C66.4969 46.5383 66.1275 46.5873 65.7676 46.6839C64.6767 46.9761 63.7645 47.6761 63.1992 48.655C62.6344 49.6335 62.4846 50.7737 62.7772 51.8656Z" fill="#E9ECF0"/>
<path d="M87.0865 48.0351H87.0876C87.6217 48.0351 88.1564 47.9642 88.6768 47.8246C88.7512 47.8046 88.824 47.7821 88.8966 47.7597L88.9255 47.7512C88.9404 47.7469 88.9554 47.7426 88.9702 47.7378C89.0037 47.727 89.0368 47.7152 89.0699 47.7033L89.1531 47.6743C89.1902 47.6616 89.2274 47.6489 89.264 47.6351C89.2833 47.6277 89.302 47.6201 89.321 47.6123L89.3597 47.5964C89.4245 47.5707 89.4894 47.545 89.5533 47.5171L89.5923 47.4992C90.7738 46.9734 91.7426 46.0991 92.3939 44.9707C92.9892 43.9404 93.2704 42.7727 93.2075 41.594L93.205 41.538C93.2015 41.4833 93.1964 41.4283 93.1903 41.3629L93.187 41.324C93.1841 41.2911 93.1814 41.2583 93.1778 41.225C93.1761 41.2095 93.1739 41.1937 93.1716 41.1783L93.1679 41.1511C93.132 40.8656 93.0782 40.5871 93.0074 40.3231C92.2912 37.6493 89.86 35.7819 87.0939 35.7819C86.5612 35.7819 86.0264 35.853 85.5044 35.9928C83.9249 36.4157 82.6044 37.429 81.7862 38.8461C80.968 40.2631 80.7508 41.9138 81.1745 43.4942C81.8901 46.1678 84.3209 48.0351 87.0865 48.0351Z" fill="#E9ECF0"/>
<path d="M38.471 49.8208C38.706 49.8208 38.9303 49.747 39.1196 49.6071L47.2175 43.6324C47.4526 43.4589 47.606 43.2043 47.6495 42.9154C47.693 42.6266 47.6215 42.3379 47.448 42.1029C47.2426 41.8247 46.9135 41.6584 46.5674 41.6584C46.3325 41.6584 46.1083 41.7324 45.9186 41.8721L37.8209 47.8469C37.5858 48.0204 37.4324 48.275 37.3888 48.5638C37.3453 48.8527 37.4168 49.1413 37.5903 49.3764C37.7955 49.6547 38.1247 49.8208 38.471 49.8208Z" fill="#E9ECF0"/>
<path d="M54.8845 42.1076C54.7123 42.3437 54.6423 42.6326 54.6874 42.9212C54.7325 43.2098 54.8874 43.4637 55.1232 43.6358L61.3255 48.1617C61.514 48.2993 61.7366 48.372 61.9694 48.372C62.3181 48.372 62.6486 48.2041 62.8537 47.923C63.026 47.6869 63.096 47.398 63.0509 47.1094C63.0058 46.8208 62.8509 46.5669 62.615 46.3948L56.4126 41.8688C56.2242 41.7313 56.0016 41.6586 55.769 41.6586C55.4203 41.6586 55.0897 41.8265 54.8845 42.1076Z" fill="#E9ECF0"/>
<path d="M72.2787 49.2575C72.4244 49.2575 72.567 49.2286 72.7024 49.1716L80.2375 46.0022C80.5068 45.889 80.716 45.6776 80.8263 45.4071C80.9368 45.1365 80.9352 44.8393 80.822 44.5699C80.6508 44.1629 80.255 43.9 79.8134 43.9C79.6677 43.9 79.5251 43.9289 79.3897 43.9859L71.8543 47.1553C71.585 47.2685 71.3759 47.4799 71.2655 47.7504C71.1551 48.021 71.1568 48.3182 71.2701 48.5876C71.4413 48.9944 71.8371 49.2575 72.2787 49.2575Z" fill="#E9ECF0"/>
<path d="M78.149 74.5605C77.656 74.5605 77.2219 74.8935 77.0936 75.3699L74.8045 83.8663C74.6477 84.4486 74.9937 85.05 75.5761 85.207C75.6699 85.2321 75.7657 85.2448 75.8612 85.2448C76.3543 85.2448 76.7884 84.9119 76.9168 84.4353L79.2059 75.9389C79.3627 75.3567 79.0166 74.7554 78.4342 74.5983C78.3407 74.5733 78.2449 74.5605 78.149 74.5605Z" fill="#E9ECF0"/>
<path d="M84.8183 94.9465L80.6481 92.9581C80.4995 92.8871 80.3413 92.8513 80.1779 92.8513C79.7584 92.8513 79.3707 93.0959 79.1901 93.4746C78.9306 94.0189 79.1621 94.673 79.7062 94.9326L83.8768 96.921C84.0254 96.992 84.1835 97.0278 84.3469 97.0278C84.7664 97.0278 85.1542 96.7832 85.3348 96.4045C85.4606 96.1408 85.4762 95.8438 85.3785 95.5686C85.2811 95.2931 85.082 95.0722 84.8183 94.9465Z" fill="#E9ECF0"/>
<path d="M43.244 95.4362L37.9243 92.6339C37.7676 92.5513 37.5915 92.5077 37.4154 92.5077C37.0077 92.5077 36.6367 92.7316 36.4468 93.0918C36.1657 93.6252 36.3712 94.2882 36.9048 94.5693L42.2244 97.3716C42.3813 97.4542 42.5574 97.4978 42.7335 97.4978C43.1409 97.4978 43.5121 97.274 43.702 96.9137C43.9831 96.3803 43.7776 95.7173 43.244 95.4362Z" fill="#E9ECF0"/>
<path d="M72.7299 71.1633C73.3134 71.0105 73.6639 70.4118 73.5115 69.8283C73.3856 69.3471 72.9505 69.0109 72.4537 69.0109C72.3606 69.0109 72.2675 69.0229 72.1774 69.0466L67.85 70.1532C67.1136 68.0059 65.9161 66.0933 64.2892 64.4664C61.4741 61.651 57.73 60.1007 53.747 60.1007C50.1601 60.1007 46.7059 61.3857 44.0059 63.7217L40.0716 59.9198C39.8655 59.7165 39.5926 59.6044 39.3032 59.6044C39.0084 59.6044 38.7319 59.7199 38.5249 59.9296C38.1012 60.3588 38.1057 61.0526 38.5349 61.4765L42.4216 65.314C37.3803 71.1959 37.7141 80.06 43.2046 85.551C44.8176 87.1639 46.7128 88.3554 48.8393 89.0935L47.6705 93.4589C47.5145 94.0415 47.8614 94.6424 48.4441 94.7985C48.5371 94.8235 48.6325 94.836 48.7275 94.836C49.2213 94.836 49.6556 94.5025 49.7835 94.0251L50.957 89.6577C51.8712 89.8297 52.8092 89.917 53.7471 89.917C57.73 89.917 61.4741 88.3664 64.2894 85.551C67.1048 82.7354 68.6554 78.9914 68.6554 75.0087C68.6554 74.099 68.5726 73.1859 68.4093 72.2928L72.7299 71.1633Z" fill="#E9ECF0"/>
</svg>
