<svg width="120" height="138" viewBox="0 0 120 138" fill="none" xmlns="http://www.w3.org/2000/svg">
<path d="M55.0153 2.86621C58.1015 1.09163 61.8985 1.09163 64.9847 2.86621L114.985 31.6162C118.087 33.4002 120 36.7063 120 40.2853V97.7147C120 101.294 118.087 104.6 114.985 106.384L64.9847 135.134C61.8985 136.908 58.1015 136.908 55.0153 135.134L5.01528 106.384C1.91266 104.6 0 101.294 0 97.7147V40.2853C0 36.7063 1.91267 33.4002 5.01529 31.6162L55.0153 2.86621Z" fill="#0C2851"/>
<g clip-path="url(#clip0_15_81)">
<mask id="mask0_15_81" style="mask-type:luminance" maskUnits="userSpaceOnUse" x="26" y="34" width="69" height="70">
<path d="M95 34H26V104H95V34Z" fill="white"/>
</mask>
<g mask="url(#mask0_15_81)">
<path d="M26.5825 38.3087C26.6609 35.6623 29.3539 34.052 31.7602 34.2702C50.8934 34.2511 70.036 34.2511 89.169 34.2715C91.5553 34.0629 94.2578 35.605 94.3565 38.2406C95.0067 41.8619 90.6966 42.6664 89.1585 45.2037C81.5646 55.7283 73.605 66.0033 66.1385 76.6165C65.3491 83.3113 66.3157 90.1544 65.7141 96.8882C62.6372 99.7434 58.9776 101.902 55.3492 103.96C54.8166 96.3417 55.191 88.6925 55.1126 81.0627C54.9842 79.233 55.4871 77.1033 54.196 75.5816C46.7215 65.4348 39.1956 55.3193 31.7399 45.1629C30.211 42.6568 25.9999 41.8701 26.5825 38.3087ZM30.2799 36.629C27.8641 37.1266 28.4359 41.2238 30.941 40.9852C50.0052 41.1747 69.0789 40.9852 88.1431 41.0752C89.5533 41.0548 92.2069 41.1652 92.1566 39.1159C92.7489 36.6985 89.8882 36.2813 88.1728 36.4299C68.8829 36.5881 49.5523 36.1913 30.2799 36.629Z" fill="white"/>
</g>
</g>
<defs>
<clipPath id="clip0_15_81">
<rect width="69" height="70" fill="white" transform="translate(26 34)"/>
</clipPath>
</defs>
</svg>
