<svg width="32" height="32" viewBox="0 0 32 32" fill="none" xmlns="http://www.w3.org/2000/svg">
<g filter="url(#filter0_i_15_146)">
<g clip-path="url(#clip0_15_146)">
<rect width="32" height="32" rx="16" fill="white" fill-opacity="0.01"/>
<path d="M23.2315 11.9286C22.8327 12.5119 22.3505 13.0089 21.785 13.4196C21.791 13.503 21.794 13.628 21.794 13.7946C21.794 14.5685 21.6809 15.3423 21.4547 16.1161C21.2285 16.8839 20.8833 17.622 20.419 18.3304C19.9606 19.0387 19.413 19.6667 18.7761 20.2143C18.1392 20.756 17.3714 21.1905 16.4725 21.5179C15.5737 21.8393 14.6124 22 13.5886 22C11.9755 22 10.4993 21.5685 9.16004 20.7054C9.36838 20.7292 9.60052 20.7411 9.85647 20.7411C11.1958 20.7411 12.3892 20.3304 13.4368 19.5089C12.8118 19.497 12.2523 19.3065 11.7583 18.9375C11.2642 18.5625 10.9249 18.0863 10.7404 17.5089C10.9368 17.5387 11.1184 17.5536 11.285 17.5536C11.541 17.5536 11.794 17.5208 12.044 17.4554C11.3773 17.3185 10.8237 16.9881 10.3833 16.4643C9.94873 15.9345 9.73147 15.3214 9.73147 14.625V14.5893C10.1362 14.8155 10.5708 14.9375 11.035 14.9554C10.6422 14.6935 10.3297 14.3512 10.0975 13.9286C9.8654 13.506 9.74933 13.0476 9.74933 12.5536C9.74933 12.0298 9.88028 11.5446 10.1422 11.0982C10.8624 11.9851 11.7374 12.6964 12.7672 13.2321C13.8029 13.7619 14.91 14.0565 16.0886 14.1161C16.041 13.8899 16.0172 13.6696 16.0172 13.4554C16.0172 12.6577 16.2969 11.9792 16.8565 11.4196C17.4219 10.8542 18.1035 10.5714 18.9011 10.5714C19.7344 10.5714 20.4368 10.875 21.0083 11.4821C21.6571 11.3571 22.2672 11.125 22.8386 10.7857C22.6184 11.4702 22.1958 12 21.5708 12.375C22.1243 12.3155 22.6779 12.1667 23.2315 11.9286Z" fill="white"/>
</g>
</g>
<defs>
<filter id="filter0_i_15_146" x="0" y="0" width="32" height="32" filterUnits="userSpaceOnUse" color-interpolation-filters="sRGB">
<feFlood flood-opacity="0" result="BackgroundImageFix"/>
<feBlend mode="normal" in="SourceGraphic" in2="BackgroundImageFix" result="shape"/>
<feColorMatrix in="SourceAlpha" type="matrix" values="0 0 0 0 0 0 0 0 0 0 0 0 0 0 0 0 0 0 127 0" result="hardAlpha"/>
<feMorphology radius="2" operator="erode" in="SourceAlpha" result="effect1_innerShadow_15_146"/>
<feOffset/>
<feComposite in2="hardAlpha" operator="arithmetic" k2="-1" k3="1"/>
<feColorMatrix type="matrix" values="0 0 0 0 1 0 0 0 0 1 0 0 0 0 1 0 0 0 1 0"/>
<feBlend mode="normal" in2="shape" result="effect1_innerShadow_15_146"/>
</filter>
<clipPath id="clip0_15_146">
<rect width="32" height="32" rx="16" fill="white"/>
</clipPath>
</defs>
</svg>
