<svg width="32" height="32" viewBox="0 0 32 32" fill="none" xmlns="http://www.w3.org/2000/svg">
<g filter="url(#filter0_i_15_149)">
<g clip-path="url(#clip0_15_149)">
<rect width="32" height="32" rx="16" fill="white" fill-opacity="0.01"/>
<path d="M19.3576 16.7679C19.5362 16.6667 19.6254 16.506 19.6254 16.2857C19.6254 16.0655 19.5362 15.9048 19.3576 15.8036L14.7862 12.9464C14.6016 12.8274 14.4082 12.8214 14.2058 12.9286C14.0094 13.0357 13.9112 13.2024 13.9112 13.4286V19.1429C13.9112 19.369 14.0094 19.5357 14.2058 19.6429C14.301 19.6905 14.3933 19.7143 14.4826 19.7143C14.6016 19.7143 14.7028 19.6845 14.7862 19.625L19.3576 16.7679ZM24.1879 14.9464C24.1939 15.2679 24.1969 15.7143 24.1969 16.2857C24.1969 16.8571 24.1939 17.3036 24.1879 17.625C24.182 17.9464 24.1552 18.3542 24.1076 18.8482C24.0659 19.3363 24.0004 19.7738 23.9112 20.1607C23.8159 20.5952 23.6106 20.9613 23.2951 21.2589C22.9796 21.5565 22.6106 21.7292 22.1879 21.7768C20.8665 21.9256 18.8695 22 16.1969 22C13.5243 22 11.5272 21.9256 10.2058 21.7768C9.78318 21.7292 9.41116 21.5565 9.08973 21.2589C8.77426 20.9613 8.5689 20.5952 8.47366 20.1607C8.39033 19.7738 8.32485 19.3363 8.27723 18.8482C8.23557 18.3542 8.21176 17.9464 8.2058 17.625C8.19985 17.3036 8.19687 16.8571 8.19687 16.2857C8.19687 15.7143 8.19985 15.2679 8.2058 14.9464C8.21176 14.625 8.23557 14.2202 8.27723 13.7321C8.32485 13.2381 8.3933 12.7976 8.48259 12.4107C8.57783 11.9762 8.78318 11.6101 9.09866 11.3125C9.41414 11.0149 9.78318 10.8423 10.2058 10.7946C11.5272 10.6458 13.5243 10.5714 16.1969 10.5714C18.8695 10.5714 20.8665 10.6458 22.1879 10.7946C22.6106 10.8423 22.9796 11.0149 23.2951 11.3125C23.6165 11.6101 23.8249 11.9762 23.9201 12.4107C24.0034 12.7976 24.0659 13.2381 24.1076 13.7321C24.1552 14.2202 24.182 14.625 24.1879 14.9464Z" fill="white"/>
</g>
</g>
<defs>
<filter id="filter0_i_15_149" x="0" y="0" width="32" height="32" filterUnits="userSpaceOnUse" color-interpolation-filters="sRGB">
<feFlood flood-opacity="0" result="BackgroundImageFix"/>
<feBlend mode="normal" in="SourceGraphic" in2="BackgroundImageFix" result="shape"/>
<feColorMatrix in="SourceAlpha" type="matrix" values="0 0 0 0 0 0 0 0 0 0 0 0 0 0 0 0 0 0 127 0" result="hardAlpha"/>
<feMorphology radius="2" operator="erode" in="SourceAlpha" result="effect1_innerShadow_15_149"/>
<feOffset/>
<feComposite in2="hardAlpha" operator="arithmetic" k2="-1" k3="1"/>
<feColorMatrix type="matrix" values="0 0 0 0 1 0 0 0 0 1 0 0 0 0 1 0 0 0 1 0"/>
<feBlend mode="normal" in2="shape" result="effect1_innerShadow_15_149"/>
</filter>
<clipPath id="clip0_15_149">
<rect width="32" height="32" rx="16" fill="white"/>
</clipPath>
</defs>
</svg>
